# xmcd
#
# Track frame offsets:
#	150
#	13889
#	29424
#	48486
#	63144
#	75888
#	92601
#	103421
#	120690
#	135642
#	149083
#	161800
#	175986
#	189396
#	202824
#	215486
#	235264
#	248925
#	261207
#	273428
#	291744
#	304039
#	314081
#	329279
#
# Disc length: 4651 seconds
#
# Revision: 0
# Processed by: cddbd v1.5.2PL0 Copyright (c) Steve Scherf et al.
# Submitted via: EasyCDDAExtractor 12.0.5.1
#
DISCID=6f122918
DTITLE=Various Artist - Country Hits, Vol. 16
DYEAR=2010
DGENRE=Country
TTITLE0=Tanya Tucker - Don't Believe My Heart Can Stand Another You
TTITLE1=Charley Pride - Hello Love
TTITLE2=Chris Knight - Cry Lonely
TTITLE3=Dolly Parton - The Better Part Of Life
TTITLE4=Merle Haggard - Sing Me Back Home
TTITLE5=Tanya Tucker - I Won't Take Less Than Your Love
TTITLE6=Lynn Anderson - Heaven's Just A Sin Away
TTITLE7=Charley Pride - Just for the Love of It
TTITLE8=Chris Knight - Up From The Hill
TTITLE9=Merle Haggard - I'm A Lonesome Fugitive
TTITLE10=Charley Pride - Hope You're Feelin Me (Like I'm Feeling You)
TTITLE11=Merle Haggard - Branded Man
TTITLE12=Tanya Tucker - It Won't Be Me
TTITLE13=Dolly Parton - Down On Music Row
TTITLE14=Lynn Anderson - I Fall To Pieces
TTITLE15=Chris Knight - Old Man
TTITLE16=Charley Pride - Burnin' Down the Town
TTITLE17=Merle Haggard - Okie From Muskogee
TTITLE18=Dolly Parton - Sacred Memories (Single B-Side)
TTITLE19=Tanya Tucker - I'll Come Back As Another Woman
TTITLE20=Charley Pride - I Came Straight to You
TTITLE21=Merle Haggard - The Running Kind
TTITLE22=Wreckers - Different Truck, Same Loser
TTITLE23=Tanya Tucker - Ramblin' Fever
EXTD=
EXTT0=
EXTT1=
EXTT2=
EXTT3=
EXTT4=
EXTT5=
EXTT6=
EXTT7=
EXTT8=
EXTT9=
EXTT10=
EXTT11=
EXTT12=
EXTT13=
EXTT14=
EXTT15=
EXTT16=
EXTT17=
EXTT18=
EXTT19=
EXTT20=
EXTT21=
EXTT22=
EXTT23=
PLAYORDER=
